<svg xmlns="http://www.w3.org/2000/svg" width="72.038" height="72.039" viewBox="0 0 72.038 72.039">
  <g id="logo" transform="translate(0.001 0.004)">
    <path id="Path_228" data-name="Path 228" d="M557.211,626.452A33.348,33.348,0,1,1,590.559,593.1a33.348,33.348,0,0,1-33.348,33.349m0-69.367A36.019,36.019,0,1,0,593.229,593.1a36.019,36.019,0,0,0-36.019-36.019" transform="translate(-521.192 -557.085)"/>
    <path id="Path_229" data-name="Path 229" d="M596.921,596.271h-2.044a.987.987,0,0,0-1.233.841L583.067,629.1a1.557,1.557,0,0,0-.1.446c0,.3.146.655.84.655h2.065a1,1,0,0,0,1.245-.849l10.537-31.994a1.53,1.53,0,0,0,.1-.441c0-.3-.144-.65-.832-.65" transform="translate(-552.933 -577.219)"/>
    <path id="Path_230" data-name="Path 230" d="M622.355,624.035a1.279,1.279,0,0,0-.849-.216h-1.8a1.272,1.272,0,0,0-.848.216,1.083,1.083,0,0,0-.247.833V643.31a1.08,1.08,0,0,0,.248.833,1.265,1.265,0,0,0,.847.216h1.8a1.275,1.275,0,0,0,.849-.216,1.085,1.085,0,0,0,.247-.833V624.868a1.086,1.086,0,0,0-.247-.833" transform="translate(-571.248 -591.373)"/>
    <path id="Path_231" data-name="Path 231" d="M570.214,599.557a6.457,6.457,0,0,0-.818-.92c-1.615-1.466-3.282-2.322-7.025-2.358l-2.431-.008h-.015a1.307,1.307,0,0,0-.38.039c-.251.082-.51.3-.322.88l.242.742.308.947a1.3,1.3,0,0,0,.359.654,1.32,1.32,0,0,0,.68.148h.662c2.345,0,3.91.479,4.924,1.509,1,1.011,1.48,2.76,1.48,5.347s-.484,4.336-1.48,5.348c-1.014,1.029-2.578,1.509-4.923,1.509h-.659a1.326,1.326,0,0,0-.683.147,1.3,1.3,0,0,0-.36.654l-.308.947-.242.742c-.188.579.071.8.322.88a1.291,1.291,0,0,0,.377.039l2.449-.008c3.743-.036,5.41-.892,7.025-2.358a6.492,6.492,0,0,0,.818-.92c1.2-1.6,1.786-3.881,1.786-6.985s-.584-5.389-1.786-6.985" transform="translate(-540.699 -577.219)"/>
  </g>
</svg>
